<svg xmlns="http://www.w3.org/2000/svg" viewBox="0 0 16 16"><g fill="none" fill-rule="evenodd"><rect width="16" height="16"/><path fill="#007FFF" fill-rule="nonzero" d="M2.44000021,4.47404779 L2.50000012,4.46799979 C2.62682299,4.45273463 2.7540664,4.49288446 2.8496179,4.57831665 C2.9451694,4.66374883 2.99990103,4.7863021 3.00000012,4.91504757 L3.00000012,14.5994027 C2.99990246,14.7261912 2.94409344,14.8464234 2.84759146,14.9277445 C2.75108949,15.0090655 2.62380848,15.043121 2.50000012,15.0207465 L2.41150022,15.0046185 C2.17317029,14.9614146 1.9998092,14.7522691 2.00000012,14.5081788 L2.00000012,4.97502354 C1.99994308,4.72002034 2.18884881,4.50515217 2.44000021,4.47455179 L2.44000021,4.47404779 Z M6.43699988,3.47411229 L6.5,3.4660483 C6.6264191,3.44984652 6.75365016,3.48918094 6.84931879,3.57404282 C6.94498741,3.6589047 6.99986934,3.78111174 7,3.90956807 L7,15.5751462 C7.00014248,15.7017274 6.94421957,15.8217647 6.84749568,15.9024927 C6.75077179,15.9832208 6.62334581,16.0162109 6.5,15.992458 L6.40649989,15.974314 C6.17071383,15.9290712 6.00008639,15.7213264 6,15.4793863 L6,3.97408004 C6,3.72028736 6.18722798,3.50609017 6.43699988,3.47411229 Z M4.43749997,3.97760804 L4.5,3.96954404 C4.62652529,3.95365908 4.75373244,3.99324411 4.84935571,4.07825852 C4.94497899,4.16327294 4.99983144,4.28554902 5,4.41407182 L5,15.0706425 C5.00008064,15.1972743 4.94418607,15.3173586 4.84751851,15.3982345 C4.75085096,15.4791104 4.62346229,15.5123682 4.5,15.4889623 L4.40749997,15.4713223 C4.1711313,15.4264701 3.99993713,15.218335 4,14.9758905 L4,4.47757579 C4.00003951,4.22361389 4.18752962,4.00935328 4.43749997,3.97760804 Z M9.3015,0.0469140119 L14.3015,1.63955321 C14.717354,1.77210426 15,2.16104209 15,2.60068073 L15,11.3753163 C14.9997984,11.8178903 14.713225,12.2085644 14.2935,12.3384598 L9.2935,13.8857391 C8.99022668,13.9795953 8.66076224,13.9228292 8.40563516,13.7327615 C8.15050808,13.5426938 8,13.2418744 8,12.9220916 L8,1.00804153 C8,0.686772094 8.15190742,0.384739814 8.40901258,0.194873621 C8.66611775,0.00500742746 8.99761141,-0.0499487231 9.3015,0.0469140119 Z"/></g></svg>