<svg viewBox="0 0 44 17" xmlns="http://www.w3.org/2000/svg"><g fill="#fafafa"><text font-family="InterDisplay-Medium, Inter Display" font-size="14" font-weight="400"><tspan x="12" y="14.001">Docs</tspan></text><path d="m.338 7.356.047-.005a.348.348 0 0 1 .269.083.335.335 0 0 1 .115.252v7.264a.32.32 0 0 1 -.117.246.331.331 0 0 1 -.267.07l-.068-.013a.38.38 0 0 1 -.317-.372v-7.15a.38.38 0 0 1 .338-.375zm3.075-.75.049-.006a.346.346 0 0 1 .268.08.333.333 0 0 1 .116.252v8.75a.316.316 0 0 1 -.117.245.328.328 0 0 1 -.267.067l-.072-.013a.38.38 0 0 1 -.313-.371v-8.63a.38.38 0 0 1 .336-.374zm-1.538.377.048-.006a.346.346 0 0 1 .269.082.334.334 0 0 1 .116.252v7.992a.317.317 0 0 1 -.118.246.329.329 0 0 1 -.267.068l-.071-.013a.38.38 0 0 1 -.314-.372v-7.874a.38.38 0 0 1 .337-.375zm3.742-2.948 3.846 1.195c.32.1.537.39.537.72v6.581c0 .332-.22.625-.544.723l-3.846 1.16a.78.78 0 0 1 -.683-.114.752.752 0 0 1 -.312-.608v-8.936c0-.24.117-.467.315-.61a.78.78 0 0 1 .687-.11z"/></g></svg>