<svg xmlns="http://www.w3.org/2000/svg" viewBox="0 0 177 24"><g fill="none" fill-rule="evenodd"><path d="M0 0h177v24H0z"/><g fill-rule="nonzero"><path fill="#9f9fa9" d="M114.012 17.001V6.816h1.23v4.423h5.428V6.816h1.23V17h-1.23v-4.669h-5.428v4.67zm12.742.164c-.706 0-1.31-.161-1.808-.485a3.127 3.127 0 0 1-1.145-1.336c-.265-.568-.397-1.214-.397-1.938 0-.734.14-1.386.417-1.955s.663-1.018 1.156-1.344c.492-.326 1.057-.489 1.695-.489.67 0 1.25.16 1.743.479a3.12 3.12 0 0 1 1.138 1.333c.267.57.4 1.228.4 1.976v.32h-5.4c.027.707.23 1.281.608 1.724s.91.663 1.593.663c.515 0 .935-.119 1.261-.356.326-.237.544-.542.653-.916h1.162c-.091.46-.28.865-.567 1.214a2.96 2.96 0 0 1-1.077.816c-.43.196-.908.294-1.432.294zm-2.188-4.436h4.225c-.064-.634-.285-1.137-.663-1.51-.378-.375-.864-.561-1.456-.561s-1.076.186-1.45.56c-.373.374-.592.877-.656 1.51zm7.875-5.913V17h-1.162V6.816zm1.723 13.043V9.783h1.135v1.066h.014c.232-.406.553-.708.963-.906.41-.198.85-.297 1.32-.297.629 0 1.178.157 1.647.472.47.314.834.753 1.094 1.315.26.563.39 1.216.39 1.959 0 .738-.13 1.389-.39 1.952-.26.562-.624 1.002-1.094 1.319-.47.317-1.018.475-1.647.475-.47 0-.898-.101-1.285-.304a2.529 2.529 0 0 1-.971-.926h-.014v3.95zm3.254-3.767c.624 0 1.136-.229 1.535-.687s.598-1.129.598-2.013c0-.884-.2-1.556-.598-2.017s-.91-.69-1.535-.69c-.67 0-1.202.247-1.596.742-.394.494-.592 1.15-.592 1.965 0 .816.198 1.47.592 1.962.394.492.926.738 1.596.738zm11.457.909h-3.145V6.816h3.282c.989 0 1.837.203 2.546.608a4.034 4.034 0 0 1 1.63 1.747c.379.759.568 1.664.568 2.717 0 1.062-.192 1.974-.574 2.738a4.063 4.063 0 0 1-1.665 1.76c-.727.41-1.607.615-2.642.615zm-1.914-1.093h1.832c1.267 0 2.206-.36 2.816-1.077.611-.718.916-1.699.916-2.943 0-1.23-.3-2.201-.899-2.912-.599-.711-1.498-1.066-2.696-1.066h-1.97zm11.252 1.257c-.665 0-1.25-.16-1.754-.482a3.255 3.255 0 0 1-1.175-1.33c-.28-.564-.42-1.214-.42-1.947 0-.739.14-1.393.42-1.962s.672-1.017 1.175-1.34c.504-.324 1.089-.486 1.754-.486.67 0 1.255.162 1.757.486.501.323.892.77 1.172 1.34.28.57.42 1.223.42 1.962 0 .733-.14 1.383-.42 1.948a3.263 3.263 0 0 1-1.172 1.33c-.502.32-1.087.481-1.757.481zm0-1.052c.683 0 1.217-.248 1.6-.742.382-.495.574-1.15.574-1.965 0-.825-.193-1.487-.578-1.986-.385-.5-.917-.749-1.596-.749-.68 0-1.211.249-1.596.745-.385.497-.578 1.16-.578 1.99 0 .82.191 1.476.574 1.968.383.493.916.739 1.6.739zm7.683 1.052c-.665 0-1.25-.16-1.753-.482s-.895-.764-1.176-1.33c-.28-.564-.42-1.214-.42-1.947 0-.739.14-1.393.42-1.962.28-.57.672-1.017 1.176-1.34s1.088-.486 1.753-.486c.547 0 1.037.109 1.47.325.433.217.787.514 1.063.892.276.379.446.811.51 1.3h-1.176a1.856 1.856 0 0 0-.598-1.05c-.313-.276-.735-.414-1.269-.414-.679 0-1.21.249-1.596.745-.385.497-.577 1.16-.577 1.99 0 .82.191 1.476.574 1.968s.916.739 1.6.739c.542 0 .957-.134 1.244-.4.287-.267.487-.621.601-1.063h1.196a2.783 2.783 0 0 1-.509 1.281 2.935 2.935 0 0 1-1.066.903 3.192 3.192 0 0 1-1.467.331zm6.857 0c-.515 0-.982-.084-1.401-.253s-.76-.425-1.019-.769c-.26-.344-.406-.778-.437-1.302h1.148c.082.884.643 1.326 1.682 1.326.5 0 .896-.105 1.186-.314s.434-.474.434-.793c0-.274-.1-.492-.301-.656-.2-.164-.463-.283-.786-.356l-1.162-.273c-1.358-.32-2.037-1.003-2.037-2.051 0-.41.11-.774.331-1.09.221-.317.529-.565.923-.745.394-.18.849-.27 1.364-.27.501 0 .951.094 1.35.283.399.19.715.457.95.803.235.347.359.76.373 1.238h-1.135c-.005-.383-.146-.7-.424-.95s-.65-.376-1.114-.376c-.442 0-.796.107-1.06.32-.264.215-.396.477-.396.787 0 .273.1.493.3.66.201.166.474.29.82.372l1.163.274c.693.164 1.2.409 1.524.734.324.326.486.749.486 1.269 0 .446-.121.829-.363 1.148-.241.319-.57.563-.987.731s-.888.253-1.412.253z"/><path fill="#fafafa" d="m35.356 8.911 4.98-5.349h-2.203l-6.636 7.125V3.562h-1.882v13.573h1.882v-4.067l2.604-2.801 4.735 6.868h2.186zm7.716-1.96h1.825v10.184h-1.825V6.95zm-.018-3.389h1.863v2.16h-1.864zm10.213 3.15c-2.397 0-3.404.57-3.898 1.21l-.151-.971-1.465.091v10.093h1.864V11.49c0-1.758.45-3.022 3.06-3.022 2.394 0 2.548 1.155 2.548 2.801v5.863h1.843v-6.21c-.004-2.507-.462-4.21-3.801-4.21zm10.365 4.397c-1.73-.294-2.377-.532-2.377-1.484 0-.788.496-1.263 2.34-1.263a6.779 6.779 0 0 1 3.118.714l.873-1.465c-1.007-.569-2.395-.9-4.03-.9-3.022 0-4.144 1.065-4.144 2.915 0 2.325 1.654 2.729 4.144 3.15 1.88.31 2.548.512 2.548 1.483 0 1.229-.741 1.502-2.548 1.502a7.183 7.183 0 0 1-3.727-1.025l-.949 1.391c1.424.917 3.06 1.19 4.563 1.19 3.116 0 4.447-.805 4.447-3.13-.008-2.29-1.662-2.62-4.258-3.079zm11.834-4.396c-2.241 0-3.249.532-3.668 1.117V2.922h-1.842v14.213h1.86V11.49c0-1.758.451-3.022 3.063-3.022 2.396 0 2.546 1.155 2.546 2.801v5.863h1.846v-6.21c0-2.507-.458-4.21-3.804-4.21zm6.598-3.15h1.864v2.16h-1.865zm.02 3.388h1.826v10.184h-1.826V6.95zm10.39-.238c-2.356 0-3.535.457-4.108 1.319l-.15-1.086-1.465.092v13.115h1.863v-4.08c.535.823 1.578 1.227 3.783 1.227 3.594 0 4.602-2.171 4.602-5.276.009-3.132-.96-5.311-4.525-5.311zm-.399 8.975c-2.548 0-3.461-.914-3.461-3.61 0-2.693.97-3.662 3.461-3.662 2.434 0 3.042 1.429 3.042 3.664 0 2.232-.638 3.607-3.032 3.607z"/><path fill="#4e72fe" d="m.682 6.71.093-.01a.705.705 0 0 1 .542.166.665.665 0 0 1 .233.505v14.527a.636.636 0 0 1-.236.492.67.67 0 0 1-.539.14l-.137-.024A.761.761 0 0 1 0 21.76V7.46c0-.382.293-.704.682-.75zm6.197-1.5.097-.012a.7.7 0 0 1 .542.162c.147.126.233.31.233.503v17.498a.63.63 0 0 1-.236.491.665.665 0 0 1-.539.135l-.145-.027a.761.761 0 0 1-.63-.742V5.96c0-.38.29-.702.678-.75zm-3.1.755.097-.012a.702.702 0 0 1 .541.163c.148.126.233.31.234.504v15.985a.632.632 0 0 1-.237.491.666.666 0 0 1-.538.136l-.144-.026a.761.761 0 0 1-.631-.743V6.715c0-.38.29-.702.678-.75zM11.319.07l7.752 2.39a1.517 1.517 0 0 1 1.083 1.44v13.163c0 .663-.445 1.25-1.096 1.444l-7.751 2.321a1.58 1.58 0 0 1-1.376-.23 1.5 1.5 0 0 1-.63-1.215V1.51A1.5 1.5 0 0 1 9.937.29a1.582 1.582 0 0 1 1.382-.22z"/></g></g></svg>