<svg viewBox="0 0 1000 588" xmlns="http://www.w3.org/2000/svg"><g fill="none"><path d="m424.318 273.932 32.368-34.769h-14.322l-43.134 46.31v-46.31h-12.23v88.222h12.23v-26.432l16.931-18.212 30.773 44.644h14.21zm50.151-12.743h11.865v66.196h-11.864v-66.195zm-.116-22.026h12.113v14.04h-12.118zm66.386 20.477c-15.583 0-22.129 3.696-25.336 7.86l-.983-6.311-9.519.594v65.602h12.113v-36.687c0-11.429 2.93-19.644 19.89-19.644 15.564 0 16.562 7.51 16.562 18.212v38.105h11.982v-40.36c-.03-16.298-3.003-27.371-24.709-27.371zm67.375 28.575c-11.247-1.91-15.452-3.458-15.452-9.642 0-5.123 3.222-8.21 15.204-8.21a44.061 44.061 0 0 1 20.27 4.64l5.68-9.524c-6.546-3.696-15.57-5.844-26.198-5.844-19.642 0-26.937 6.915-26.937 18.943 0 15.11 10.75 17.735 26.937 20.471 12.225 2.021 16.561 3.331 16.561 9.642 0 7.986-4.818 9.764-16.561 9.764a46.69 46.69 0 0 1 -24.227-6.662l-6.166 9.043c9.257 5.96 19.89 7.733 29.658 7.733 20.255 0 28.908-5.23 28.908-20.345-.053-14.887-10.804-17.034-27.677-20.014zm76.923-28.575c-14.57 0-21.121 3.457-23.846 7.265v-31.905h-11.973v92.385h12.094v-36.687c0-11.429 2.93-19.644 19.905-19.644 15.574 0 16.552 7.51 16.552 18.212v38.105h11.996v-40.36c0-16.298-2.973-27.371-24.723-27.371zm42.886-20.477h12.113v14.04h-12.118zm.131 22.026h11.865v66.196h-11.865v-66.195zm67.536-1.549c-15.32 0-22.981 2.97-26.704 8.575l-.978-7.056-9.52.594v85.247h12.109v-26.515c3.475 5.347 10.254 7.972 24.591 7.972 23.36 0 29.912-14.112 29.912-34.292.058-20.36-6.24-34.525-29.41-34.525zm-2.594 58.337c-16.567 0-22.5-5.94-22.5-23.456 0-17.511 6.303-23.808 22.5-23.808 15.817 0 19.773 9.287 19.773 23.813 0 14.51-4.146 23.447-19.71 23.447z" fill="#231f20"/><path d="m179.434 259.622.604-.059a4.58 4.58 0 0 1 3.524 1.076 4.347 4.347 0 0 1 1.515 3.283v94.422a4.136 4.136 0 0 1 -1.536 3.202 4.361 4.361 0 0 1 -3.503.906l-.891-.157c-2.402-.421-4.149-2.46-4.147-4.84v-92.949c0-2.486 1.903-4.58 4.434-4.88zm40.277-9.75.635-.078a4.55 4.55 0 0 1 3.52 1.053 4.318 4.318 0 0 1 1.519 3.271v113.74a4.098 4.098 0 0 1 -1.537 3.191 4.321 4.321 0 0 1 -3.502.877l-.942-.176c-2.376-.442-4.095-2.467-4.096-4.826v-112.177c0-2.474 1.886-4.563 4.403-4.874zm-20.148 4.91.63-.079a4.56 4.56 0 0 1 3.52 1.06 4.328 4.328 0 0 1 1.518 3.274v103.903a4.107 4.107 0 0 1 -1.537 3.194 4.331 4.331 0 0 1 -3.502.884l-.932-.172c-2.382-.437-4.107-2.466-4.106-4.83v-102.36c0-2.476 1.89-4.565 4.409-4.874zm49.014-38.325 50.384 15.529c4.19 1.292 7.039 5.084 7.039 9.37v85.553c-.002 4.315-2.89 8.125-7.12 9.391l-50.384 15.086a10.285 10.285 0 0 1 -8.947-1.492c-2.57-1.853-4.087-4.786-4.087-7.904v-116.162c0-3.132 1.53-6.077 4.121-7.928a10.286 10.286 0 0 1 8.994-1.443z" fill="#007fff"/></g></svg>