<svg xmlns="http://www.w3.org/2000/svg" viewBox="0 0 44 17"><path fill="#52525C" d="M16.225 14.001H12.93V3.816h3.397c.998 0 1.858.205 2.58.615.723.41 1.278.995 1.665 1.753.388.76.581 1.663.581 2.71 0 1.054-.195 1.962-.584 2.725a4.124 4.124 0 0 1-1.689 1.764c-.736.412-1.62.618-2.655.618Zm-1.778-1.319h1.682c1.19 0 2.07-.335 2.642-1.005.572-.67.858-1.597.858-2.782 0-1.18-.283-2.102-.848-2.765-.565-.663-1.415-.995-2.55-.995h-1.784v7.547Zm11.177 1.483c-.688 0-1.292-.16-1.811-.478a3.269 3.269 0 0 1-1.214-1.326c-.29-.565-.434-1.217-.434-1.955 0-.748.145-1.405.434-1.973A3.287 3.287 0 0 1 23.812 7.1c.52-.32 1.124-.482 1.812-.482s1.29.161 1.808.482c.517.322.92.766 1.21 1.333.29.568.434 1.225.434 1.973 0 .738-.145 1.39-.434 1.955a3.277 3.277 0 0 1-1.21 1.326c-.517.319-1.12.478-1.808.478Zm0-1.244c.62 0 1.107-.228 1.463-.683.355-.456.533-1.067.533-1.832 0-.775-.179-1.393-.537-1.853-.357-.46-.844-.69-1.459-.69-.615 0-1.102.229-1.46.687-.357.458-.536 1.076-.536 1.856 0 .77.178 1.382.533 1.835.356.453.843.68 1.463.68Zm7.82 1.244c-.688 0-1.29-.16-1.808-.478a3.248 3.248 0 0 1-1.206-1.33c-.287-.567-.431-1.218-.431-1.951 0-.743.145-1.4.434-1.97A3.311 3.311 0 0 1 31.64 7.1c.515-.32 1.116-.482 1.804-.482.575 0 1.088.113 1.542.339a2.874 2.874 0 0 1 1.617 2.293h-1.436a1.697 1.697 0 0 0-.547-.998c-.292-.26-.681-.39-1.169-.39-.624 0-1.112.23-1.463.691-.35.46-.526 1.078-.526 1.853 0 .765.175 1.376.526 1.832.351.455.839.683 1.463.683.497 0 .88-.126 1.149-.38.268-.252.45-.59.546-1.014h1.457a2.825 2.825 0 0 1-.506 1.35 2.976 2.976 0 0 1-1.108.943 3.38 3.38 0 0 1-1.545.345Zm7.055.007a3.964 3.964 0 0 1-1.49-.266 2.498 2.498 0 0 1-1.07-.793c-.271-.351-.423-.787-.455-1.306h1.422c.082.811.604 1.217 1.566 1.217.455 0 .817-.094 1.083-.28.267-.187.4-.424.4-.711a.71.71 0 0 0-.287-.592c-.191-.148-.442-.256-.752-.324l-1.196-.267c-1.381-.3-2.072-.989-2.072-2.065 0-.638.255-1.157.763-1.558s1.174-.602 2-.602c.815 0 1.486.211 2.012.633.527.421.799.997.817 1.726h-1.38a1.135 1.135 0 0 0-.397-.872c-.26-.23-.604-.345-1.032-.345-.41 0-.736.096-.978.287-.241.191-.362.426-.362.704a.73.73 0 0 0 .277.595c.184.15.438.262.762.335l1.23.273c.702.155 1.22.394 1.552.718.333.324.5.747.5 1.272 0 .46-.127.855-.38 1.186-.253.33-.598.585-1.036.765-.437.18-.936.27-1.497.27ZM.338 7.356l.047-.005a.348.348 0 0 1 .269.083.335.335 0 0 1 .115.252v7.264a.32.32 0 0 1-.117.246.331.331 0 0 1-.267.07l-.068-.013A.38.38 0 0 1 0 14.881v-7.15a.38.38 0 0 1 .338-.375Zm3.075-.75.049-.006a.346.346 0 0 1 .268.08.333.333 0 0 1 .116.252v8.75a.316.316 0 0 1-.117.245.328.328 0 0 1-.267.067l-.072-.013a.38.38 0 0 1-.313-.371V6.98a.38.38 0 0 1 .336-.374Zm-1.538.377.048-.006a.346.346 0 0 1 .269.082.334.334 0 0 1 .116.252v7.992a.317.317 0 0 1-.118.246.329.329 0 0 1-.267.068l-.071-.013a.38.38 0 0 1-.314-.372V7.358a.38.38 0 0 1 .337-.375Zm3.742-2.948L9.463 5.23c.32.1.537.39.537.72v6.581c0 .332-.22.625-.544.723l-3.846 1.16a.78.78 0 0 1-.683-.114.752.752 0 0 1-.312-.608V4.756c0-.24.117-.467.315-.61a.78.78 0 0 1 .687-.11Z"/></svg>