<svg xmlns="http://www.w3.org/2000/svg" viewBox="0 0 43 16"><path fill="#52525C" d="M12.675 13.001h2.714c2.94 0 4.669-1.832 4.669-4.949 0-3.11-1.737-4.915-4.67-4.915h-2.713c-.479 0-.766.3-.766.793v8.278c0 .493.287.793.766.793Zm.765-1.326V4.456h1.805c2.085 0 3.247 1.286 3.247 3.61 0 2.33-1.155 3.61-3.247 3.61H13.44Zm10.986 1.463c2.057 0 3.41-1.415 3.41-3.732 0-2.311-1.36-3.726-3.41-3.726-2.051 0-3.411 1.415-3.411 3.726 0 2.317 1.353 3.732 3.41 3.732Zm0-1.217c-1.155 0-1.907-.916-1.907-2.515 0-1.593.752-2.51 1.907-2.51s1.907.917 1.907 2.51c0 1.6-.745 2.515-1.907 2.515Zm7.629 1.217c1.333 0 2.502-.704 2.878-1.695.054-.144.082-.267.082-.383 0-.37-.267-.615-.63-.615-.32 0-.478.123-.683.478-.348.622-.834.978-1.634.978-1.141 0-1.907-.93-1.907-2.495 0-1.532.752-2.496 1.907-2.496.76 0 1.265.329 1.634 1.012.178.328.356.451.67.451.362 0 .629-.232.629-.608a1.08 1.08 0 0 0-.068-.342c-.315-1.005-1.504-1.743-2.892-1.743-2.05 0-3.384 1.463-3.384 3.74 0 2.29 1.34 3.718 3.398 3.718Zm6.808 0c1.778 0 2.974-.889 2.974-2.222 0-1.066-.581-1.606-2.092-1.955l-1.114-.26c-.759-.177-1.108-.492-1.108-.943 0-.56.547-.95 1.34-.95.725 0 1.162.287 1.484.834.143.232.355.314.594.314.37 0 .575-.218.575-.546 0-.069-.014-.137-.028-.22-.205-.847-1.271-1.51-2.57-1.51-1.709 0-2.837.861-2.837 2.16 0 1.026.684 1.71 2.078 2.037l1.135.267c.772.184 1.053.437 1.053.91 0 .594-.568.956-1.409.956-.854 0-1.285-.26-1.654-.84-.184-.274-.396-.39-.642-.39-.37 0-.636.218-.636.588 0 .095.014.198.061.307.342.882 1.381 1.463 2.796 1.463ZM.338 6.356l.047-.005a.348.348 0 0 1 .269.083.335.335 0 0 1 .115.252v7.264a.32.32 0 0 1-.117.246.331.331 0 0 1-.267.07l-.068-.013A.38.38 0 0 1 0 13.881v-7.15a.38.38 0 0 1 .338-.375Zm3.075-.75.049-.006a.346.346 0 0 1 .268.08.333.333 0 0 1 .116.252v8.75a.316.316 0 0 1-.117.245.328.328 0 0 1-.267.067l-.072-.013a.38.38 0 0 1-.313-.371V5.98a.38.38 0 0 1 .336-.374Zm-1.538.377.048-.006a.346.346 0 0 1 .269.082.334.334 0 0 1 .116.252v7.992a.317.317 0 0 1-.118.246.329.329 0 0 1-.267.068l-.071-.013a.38.38 0 0 1-.314-.372V6.358a.38.38 0 0 1 .337-.375Zm3.742-2.948L9.463 4.23c.32.1.537.39.537.72v6.581c0 .332-.22.625-.544.723l-3.846 1.16a.78.78 0 0 1-.683-.114.752.752 0 0 1-.312-.608V3.756c0-.24.117-.467.315-.61a.78.78 0 0 1 .687-.11Z"/></svg>